<svg width="160" height="51" viewBox="0 0 160 51" fill="none" xmlns="http://www.w3.org/2000/svg">
<circle cx="25.5" cy="25.5" r="25.5" fill="white"/>
<path d="M34 25.5L21.25 32.8612L21.25 18.1388L34 25.5Z" fill="#F58A07"/>
<path d="M69.2912 32H71.6626V27.5767H74.1683C77.1918 27.5767 78.8153 25.7614 78.8153 23.2429C78.8153 20.7436 77.2109 18.9091 74.2003 18.9091H69.2912V32ZM71.6626 25.6271V20.8906H73.8359C75.6129 20.8906 76.3991 21.8494 76.3991 23.2429C76.3991 24.6364 75.6129 25.6271 73.8487 25.6271H71.6626ZM83.0868 18.9091H80.7729V32H83.0868V18.9091ZM88.2915 32.1982C89.832 32.1982 90.7525 31.4759 91.1744 30.6513H91.2511V32H93.4755V25.429C93.4755 22.8338 91.3597 22.054 89.4869 22.054C87.4222 22.054 85.837 22.9744 85.3256 24.7642L87.4862 25.071C87.7163 24.3999 88.3683 23.8246 89.4996 23.8246C90.5735 23.8246 91.1616 24.3743 91.1616 25.3395V25.3778C91.1616 26.0426 90.4648 26.0746 88.7326 26.2599C86.8278 26.4645 85.006 27.0334 85.006 29.245C85.006 31.1754 86.4187 32.1982 88.2915 32.1982ZM88.8924 30.4979C87.9272 30.4979 87.2369 30.0568 87.2369 29.2067C87.2369 28.3182 88.0103 27.9474 89.0458 27.8004C89.6531 27.7173 90.8675 27.5639 91.168 27.321V28.478C91.168 29.571 90.2859 30.4979 88.8924 30.4979ZM96.8888 35.6818C98.6914 35.6818 99.7333 34.755 100.289 33.1889L104.233 22.1946L101.76 22.1818L99.4904 29.5966H99.3881L97.1254 22.1818H94.6708L98.2312 32.2045L98.033 32.7351C97.6048 33.8537 96.9272 33.9304 95.9173 33.6364L95.3803 35.4389C95.6935 35.5668 96.256 35.6818 96.8888 35.6818ZM112.158 18.9091H109.556L114.165 32H117.093L121.708 18.9091H119.1L115.699 29.2131H115.565L112.158 18.9091ZM123.33 32H125.643V22.1818H123.33V32ZM124.493 20.7884C125.228 20.7884 125.829 20.2259 125.829 19.5355C125.829 18.8388 125.228 18.2763 124.493 18.2763C123.751 18.2763 123.151 18.8388 123.151 19.5355C123.151 20.2259 123.751 20.7884 124.493 20.7884ZM131.666 32.1726C133.354 32.1726 134.115 31.169 134.479 30.4531H134.619V32H136.895V18.9091H134.575V23.8054H134.479C134.127 23.0959 133.405 22.054 131.673 22.054C129.404 22.054 127.62 23.831 127.62 27.1037C127.62 30.3381 129.352 32.1726 131.666 32.1726ZM132.312 30.2741C130.784 30.2741 129.979 28.9318 129.979 27.0909C129.979 25.2628 130.771 23.9524 132.312 23.9524C133.801 23.9524 134.619 25.1861 134.619 27.0909C134.619 28.9957 133.789 30.2741 132.312 30.2741ZM143.707 32.1918C145.996 32.1918 147.568 31.0732 147.977 29.3665L145.817 29.1236C145.504 29.9545 144.737 30.3892 143.739 30.3892C142.244 30.3892 141.253 29.4048 141.234 27.7237H148.073V27.0142C148.073 23.5689 146.002 22.054 143.586 22.054C140.773 22.054 138.939 24.1186 138.939 27.1484C138.939 30.2294 140.748 32.1918 143.707 32.1918ZM141.24 26.1641C141.31 24.9112 142.237 23.8565 143.618 23.8565C144.947 23.8565 145.842 24.8281 145.855 26.1641H141.24ZM154.313 32.1918C157.19 32.1918 159.018 30.1655 159.018 27.1293C159.018 24.0866 157.19 22.054 154.313 22.054C151.437 22.054 149.609 24.0866 149.609 27.1293C149.609 30.1655 151.437 32.1918 154.313 32.1918ZM154.326 30.3381C152.735 30.3381 151.955 28.919 151.955 27.1229C151.955 25.3267 152.735 23.8885 154.326 23.8885C155.892 23.8885 156.672 25.3267 156.672 27.1229C156.672 28.919 155.892 30.3381 154.326 30.3381Z" fill="white"/>
</svg>
